<svg width="119" height="119" viewBox="0 0 119 119" fill="none" xmlns="http://www.w3.org/2000/svg">
<rect x="0.5" y="0.5" width="118" height="118" rx="59" fill="white" fill-opacity="0.75" stroke="#E4F353" stroke-dasharray="4 4"/>
<path d="M16.5777 88.3034C15.9057 88.3034 15.2944 88.1727 14.7437 87.9114C14.2024 87.6407 13.7684 87.2254 13.4417 86.6654C13.115 86.1054 12.9517 85.3914 12.9517 84.5234V78.3354H14.1277V84.5374C14.1277 85.4894 14.3564 86.1801 14.8137 86.6094C15.271 87.0387 15.8684 87.2534 16.6057 87.2534C17.343 87.2534 17.9357 87.0387 18.3837 86.6094C18.8317 86.1801 19.0557 85.4894 19.0557 84.5374V78.3354H20.2317V84.5234C20.2317 85.3914 20.0684 86.1054 19.7417 86.6654C19.415 87.2254 18.9764 87.6407 18.4257 87.9114C17.875 88.1727 17.259 88.3034 16.5777 88.3034ZM22.1532 91.2154V81.1914H23.2172L23.3292 82.3394C23.5532 82.0034 23.8705 81.7001 24.2812 81.4294C24.7012 81.1587 25.2332 81.0234 25.8772 81.0234C26.5679 81.0234 27.1699 81.1821 27.6832 81.4994C28.1965 81.8167 28.5932 82.2507 28.8732 82.8014C29.1625 83.3521 29.3072 83.9774 29.3072 84.6774C29.3072 85.3774 29.1625 86.0027 28.8732 86.5534C28.5932 87.0947 28.1919 87.5241 27.6692 87.8414C27.1559 88.1494 26.5539 88.3034 25.8632 88.3034C25.2939 88.3034 24.7852 88.1867 24.3372 87.9534C23.8985 87.7201 23.5625 87.3934 23.3292 86.9734V91.2154H22.1532ZM25.7372 87.2814C26.2039 87.2814 26.6145 87.1741 26.9692 86.9594C27.3239 86.7354 27.6039 86.4274 27.8092 86.0354C28.0145 85.6434 28.1172 85.1861 28.1172 84.6634C28.1172 84.1407 28.0145 83.6834 27.8092 83.2914C27.6039 82.8994 27.3239 82.5961 26.9692 82.3814C26.6145 82.1574 26.2039 82.0454 25.7372 82.0454C25.2705 82.0454 24.8599 82.1574 24.5052 82.3814C24.1505 82.5961 23.8705 82.8994 23.6652 83.2914C23.4599 83.6834 23.3572 84.1407 23.3572 84.6634C23.3572 85.1861 23.4599 85.6434 23.6652 86.0354C23.8705 86.4274 24.1505 86.7354 24.5052 86.9594C24.8599 87.1741 25.2705 87.2814 25.7372 87.2814ZM30.9442 88.1354V78.0554H32.1202V88.1354H30.9442ZM37.2117 88.3034C36.5584 88.3034 35.9704 88.1541 35.4477 87.8554C34.9251 87.5567 34.5097 87.1367 34.2017 86.5954C33.9031 86.0447 33.7537 85.4007 33.7537 84.6634C33.7537 83.9261 33.9077 83.2867 34.2157 82.7454C34.5237 82.1947 34.9391 81.7701 35.4617 81.4714C35.9937 81.1727 36.5864 81.0234 37.2397 81.0234C37.8931 81.0234 38.4811 81.1727 39.0037 81.4714C39.5264 81.7701 39.9371 82.1947 40.2357 82.7454C40.5437 83.2867 40.6977 83.9261 40.6977 84.6634C40.6977 85.4007 40.5437 86.0447 40.2357 86.5954C39.9277 87.1367 39.5077 87.5567 38.9757 87.8554C38.4531 88.1541 37.8651 88.3034 37.2117 88.3034ZM37.2117 87.2954C37.6131 87.2954 37.9864 87.1974 38.3317 87.0014C38.6771 86.8054 38.9571 86.5114 39.1717 86.1194C39.3864 85.7274 39.4937 85.2421 39.4937 84.6634C39.4937 84.0847 39.3864 83.5994 39.1717 83.2074C38.9664 82.8154 38.6911 82.5214 38.3457 82.3254C38.0004 82.1294 37.6317 82.0314 37.2397 82.0314C36.8384 82.0314 36.4651 82.1294 36.1197 82.3254C35.7744 82.5214 35.4944 82.8154 35.2797 83.2074C35.0651 83.5994 34.9577 84.0847 34.9577 84.6634C34.9577 85.2421 35.0651 85.7274 35.2797 86.1194C35.4944 86.5114 35.7697 86.8054 36.1057 87.0014C36.4511 87.1974 36.8197 87.2954 37.2117 87.2954ZM44.6429 88.3034C44.0642 88.3034 43.5835 88.2054 43.2009 88.0094C42.8182 87.8134 42.5335 87.5521 42.3469 87.2254C42.1602 86.8987 42.0669 86.5441 42.0669 86.1614C42.0669 85.4521 42.3375 84.9061 42.8789 84.5234C43.4202 84.1407 44.1575 83.9494 45.0909 83.9494H46.9669V83.8654C46.9669 83.2587 46.8082 82.8014 46.4909 82.4934C46.1735 82.1761 45.7489 82.0174 45.2169 82.0174C44.7595 82.0174 44.3629 82.1341 44.0269 82.3674C43.7002 82.5914 43.4949 82.9227 43.4109 83.3614H42.2069C42.2535 82.8574 42.4215 82.4327 42.7109 82.0874C43.0095 81.7421 43.3782 81.4807 43.8169 81.3034C44.2555 81.1167 44.7222 81.0234 45.2169 81.0234C46.1875 81.0234 46.9155 81.2847 47.4009 81.8074C47.8955 82.3207 48.1429 83.0067 48.1429 83.8654V88.1354H47.0929L47.0229 86.8894C46.8269 87.2814 46.5375 87.6174 46.1549 87.8974C45.7815 88.1681 45.2775 88.3034 44.6429 88.3034ZM44.8249 87.3094C45.2729 87.3094 45.6555 87.1927 45.9729 86.9594C46.2995 86.7261 46.5469 86.4227 46.7149 86.0494C46.8829 85.6761 46.9669 85.2841 46.9669 84.8734V84.8594H45.1889C44.4982 84.8594 44.0082 84.9807 43.7189 85.2234C43.4389 85.4567 43.2989 85.7507 43.2989 86.1054C43.2989 86.4694 43.4295 86.7634 43.6909 86.9874C43.9615 87.2021 44.3395 87.3094 44.8249 87.3094ZM53.0571 88.3034C52.3664 88.3034 51.7598 88.1447 51.2371 87.8274C50.7238 87.5101 50.3224 87.0761 50.0331 86.5254C49.7531 85.9747 49.6131 85.3494 49.6131 84.6494C49.6131 83.9494 49.7578 83.3287 50.0471 82.7874C50.3364 82.2367 50.7378 81.8074 51.2511 81.4994C51.7644 81.1821 52.3711 81.0234 53.0711 81.0234C53.6404 81.0234 54.1444 81.1401 54.5831 81.3734C55.0218 81.6067 55.3624 81.9334 55.6051 82.3534V78.0554H56.7811V88.1354H55.7171L55.6051 86.9874C55.3811 87.3234 55.0591 87.6267 54.6391 87.8974C54.2191 88.1681 53.6918 88.3034 53.0571 88.3034ZM53.1831 87.2814C53.6498 87.2814 54.0604 87.1741 54.4151 86.9594C54.7791 86.7354 55.0591 86.4274 55.2551 86.0354C55.4604 85.6434 55.5631 85.1861 55.5631 84.6634C55.5631 84.1407 55.4604 83.6834 55.2551 83.2914C55.0591 82.8994 54.7791 82.5961 54.4151 82.3814C54.0604 82.1574 53.6498 82.0454 53.1831 82.0454C52.7258 82.0454 52.3151 82.1574 51.9511 82.3814C51.5964 82.5961 51.3164 82.8994 51.1111 83.2914C50.9151 83.6834 50.8171 84.1407 50.8171 84.6634C50.8171 85.1861 50.9151 85.6434 51.1111 86.0354C51.3164 86.4274 51.5964 86.7354 51.9511 86.9594C52.3151 87.1741 52.7258 87.2814 53.1831 87.2814ZM63.1172 79.6514C62.8839 79.6514 62.6879 79.5767 62.5292 79.4274C62.3799 79.2687 62.3052 79.0727 62.3052 78.8394C62.3052 78.6154 62.3799 78.4287 62.5292 78.2794C62.6879 78.1301 62.8839 78.0554 63.1172 78.0554C63.3412 78.0554 63.5325 78.1301 63.6912 78.2794C63.8499 78.4287 63.9292 78.6154 63.9292 78.8394C63.9292 79.0727 63.8499 79.2687 63.6912 79.4274C63.5325 79.5767 63.3412 79.6514 63.1172 79.6514ZM62.5292 88.1354V81.1914H63.7052V88.1354H62.5292ZM65.7528 88.1354V81.1914H66.8168L66.9008 82.1994C67.1248 81.8261 67.4235 81.5367 67.7968 81.3314C68.1701 81.1261 68.5901 81.0234 69.0568 81.0234C69.6075 81.0234 70.0788 81.1354 70.4708 81.3594C70.8721 81.5834 71.1801 81.9241 71.3948 82.3814C71.6375 81.9614 71.9688 81.6301 72.3888 81.3874C72.8181 81.1447 73.2801 81.0234 73.7748 81.0234C74.6055 81.0234 75.2681 81.2754 75.7628 81.7794C76.2575 82.2741 76.5048 83.0394 76.5048 84.0754V88.1354H75.3428V84.2014C75.3428 83.4827 75.1981 82.9414 74.9088 82.5774C74.6195 82.2134 74.2041 82.0314 73.6628 82.0314C73.1028 82.0314 72.6361 82.2507 72.2628 82.6894C71.8988 83.1187 71.7168 83.7347 71.7168 84.5374V88.1354H70.5408V84.2014C70.5408 83.4827 70.3961 82.9414 70.1068 82.5774C69.8175 82.2134 69.4021 82.0314 68.8608 82.0314C68.3101 82.0314 67.8481 82.2507 67.4748 82.6894C67.1108 83.1187 66.9288 83.7347 66.9288 84.5374V88.1354H65.7528ZM80.5862 88.3034C80.0076 88.3034 79.5269 88.2054 79.1442 88.0094C78.7616 87.8134 78.4769 87.5521 78.2902 87.2254C78.1036 86.8987 78.0102 86.5441 78.0102 86.1614C78.0102 85.4521 78.2809 84.9061 78.8222 84.5234C79.3636 84.1407 80.1009 83.9494 81.0342 83.9494H82.9102V83.8654C82.9102 83.2587 82.7516 82.8014 82.4342 82.4934C82.1169 82.1761 81.6922 82.0174 81.1602 82.0174C80.7029 82.0174 80.3062 82.1341 79.9702 82.3674C79.6436 82.5914 79.4382 82.9227 79.3542 83.3614H78.1502C78.1969 82.8574 78.3649 82.4327 78.6542 82.0874C78.9529 81.7421 79.3216 81.4807 79.7602 81.3034C80.1989 81.1167 80.6656 81.0234 81.1602 81.0234C82.1309 81.0234 82.8589 81.2847 83.3442 81.8074C83.8389 82.3207 84.0862 83.0067 84.0862 83.8654V88.1354H83.0362L82.9662 86.8894C82.7702 87.2814 82.4809 87.6174 82.0982 87.8974C81.7249 88.1681 81.2209 88.3034 80.5862 88.3034ZM80.7682 87.3094C81.2162 87.3094 81.5989 87.1927 81.9162 86.9594C82.2429 86.7261 82.4902 86.4227 82.6582 86.0494C82.8262 85.6761 82.9102 85.2841 82.9102 84.8734V84.8594H81.1322C80.4416 84.8594 79.9516 84.9807 79.6622 85.2234C79.3822 85.4567 79.2422 85.7507 79.2422 86.1054C79.2422 86.4694 79.3729 86.7634 79.6342 86.9874C79.9049 87.2021 80.2829 87.3094 80.7682 87.3094ZM88.5945 85.9514C88.2025 85.9514 87.8431 85.9001 87.5165 85.7974L86.8165 86.4554C86.9191 86.5301 87.0451 86.5954 87.1945 86.6514C87.3531 86.6981 87.5771 86.7447 87.8665 86.7914C88.1558 86.8287 88.5618 86.8707 89.0845 86.9174C90.0178 86.9827 90.6851 87.1974 91.0865 87.5614C91.4878 87.9254 91.6885 88.4014 91.6885 88.9894C91.6885 89.3907 91.5765 89.7734 91.3525 90.1374C91.1378 90.5014 90.8018 90.8001 90.3445 91.0334C89.8965 91.2667 89.3178 91.3834 88.6085 91.3834C87.9831 91.3834 87.4278 91.2994 86.9425 91.1314C86.4571 90.9727 86.0791 90.7254 85.8085 90.3894C85.5378 90.0627 85.4025 89.6474 85.4025 89.1434C85.4025 88.8821 85.4725 88.5974 85.6125 88.2894C85.7525 87.9907 86.0138 87.7061 86.3965 87.4354C86.1911 87.3514 86.0138 87.2627 85.8645 87.1694C85.7245 87.0667 85.5938 86.9547 85.4725 86.8334V86.5114L86.6625 85.3354C86.1118 84.8687 85.8365 84.2527 85.8365 83.4874C85.8365 83.0301 85.9438 82.6147 86.1585 82.2414C86.3731 81.8681 86.6858 81.5741 87.0965 81.3594C87.5071 81.1354 88.0065 81.0234 88.5945 81.0234C88.9958 81.0234 89.3598 81.0794 89.6865 81.1914H92.2485V82.0734L90.9465 82.1294C91.2171 82.5214 91.3525 82.9741 91.3525 83.4874C91.3525 83.9447 91.2405 84.3601 91.0165 84.7334C90.8018 85.1067 90.4891 85.4054 90.0785 85.6294C89.6771 85.8441 89.1825 85.9514 88.5945 85.9514ZM88.5945 84.9854C89.0891 84.9854 89.4811 84.8594 89.7705 84.6074C90.0691 84.3461 90.2185 83.9727 90.2185 83.4874C90.2185 83.0114 90.0691 82.6474 89.7705 82.3954C89.4811 82.1341 89.0891 82.0034 88.5945 82.0034C88.0905 82.0034 87.6891 82.1341 87.3905 82.3954C87.1011 82.6474 86.9565 83.0114 86.9565 83.4874C86.9565 83.9727 87.1011 84.3461 87.3905 84.6074C87.6891 84.8594 88.0905 84.9854 88.5945 84.9854ZM86.5505 89.0314C86.5505 89.4981 86.7465 89.8434 87.1385 90.0674C87.5305 90.3007 88.0205 90.4174 88.6085 90.4174C89.1871 90.4174 89.6491 90.2914 89.9945 90.0394C90.3491 89.7874 90.5265 89.4514 90.5265 89.0314C90.5265 88.7327 90.4051 88.4714 90.1625 88.2474C89.9198 88.0327 89.4718 87.9067 88.8185 87.8694C88.3051 87.8321 87.8618 87.7854 87.4885 87.7294C87.1058 87.9347 86.8538 88.1541 86.7325 88.3874C86.6111 88.6301 86.5505 88.8447 86.5505 89.0314ZM96.4236 88.3034C95.761 88.3034 95.173 88.1541 94.6596 87.8554C94.1463 87.5474 93.7403 87.1227 93.4416 86.5814C93.1523 86.0401 93.0076 85.4007 93.0076 84.6634C93.0076 83.9354 93.1523 83.3007 93.4416 82.7594C93.731 82.2087 94.1323 81.7841 94.6456 81.4854C95.1683 81.1774 95.7703 81.0234 96.4516 81.0234C97.1236 81.0234 97.7023 81.1774 98.1876 81.4854C98.6823 81.7841 99.0603 82.1807 99.3216 82.6754C99.583 83.1701 99.7136 83.7021 99.7136 84.2714C99.7136 84.3741 99.709 84.4767 99.6996 84.5794C99.6996 84.6821 99.6996 84.7987 99.6996 84.9294H94.1696C94.1976 85.4614 94.319 85.9047 94.5336 86.2594C94.7576 86.6047 95.033 86.8661 95.3596 87.0434C95.6956 87.2207 96.0503 87.3094 96.4236 87.3094C96.909 87.3094 97.315 87.1974 97.6416 86.9734C97.9683 86.7494 98.2063 86.4461 98.3556 86.0634H99.5176C99.331 86.7074 98.9716 87.2441 98.4396 87.6734C97.917 88.0934 97.245 88.3034 96.4236 88.3034ZM96.4236 82.0174C95.8636 82.0174 95.3643 82.1901 94.9256 82.5354C94.4963 82.8714 94.249 83.3661 94.1836 84.0194H98.5516C98.5236 83.3941 98.309 82.9041 97.9076 82.5494C97.5063 82.1947 97.0116 82.0174 96.4236 82.0174Z" fill="#080816" fill-opacity="0.38"/>
<g clip-path="url(#clip0_9_172)">
<path d="M67.2422 56.7626C67.4975 56.7626 67.7471 56.6868 67.9594 56.5449C68.1717 56.403 68.3372 56.2014 68.4349 55.9655C68.5326 55.7296 68.5582 55.47 68.5084 55.2195C68.4586 54.9691 68.3356 54.7391 68.1551 54.5585L60.1856 46.5903C58.9749 45.3799 57.3331 44.7 55.6211 44.7C53.9092 44.7 52.2673 45.3799 51.0566 46.5903L48.2521 49.3935C48.0168 49.6371 47.8867 49.9632 47.8896 50.3018C47.8926 50.6404 48.0284 50.9642 48.2678 51.2036C48.5072 51.443 48.831 51.5788 49.1696 51.5818C49.5082 51.5847 49.8343 51.4546 50.0779 51.2193L52.8824 48.4161C53.62 47.7112 54.6009 47.3179 55.6211 47.3179C56.6413 47.3179 57.6222 47.7112 58.3598 48.4161L66.3293 56.3843C66.5714 56.6264 66.8998 56.7625 67.2422 56.7626Z" fill="#080816" fill-opacity="0.38"/>
<path d="M64.6597 45.787C65.5535 45.787 66.4273 45.522 67.1705 45.0254C67.9137 44.5288 68.4929 43.823 68.835 42.9972C69.177 42.1714 69.2665 41.2627 69.0922 40.386C68.9178 39.5094 68.4874 38.7041 67.8553 38.0721C67.2233 37.44 66.418 37.0096 65.5414 36.8352C64.6647 36.6609 63.756 36.7504 62.9302 37.0924C62.1044 37.4345 61.3986 38.0137 60.902 38.7569C60.4054 39.5001 60.1404 40.3739 60.1404 41.2677C60.1404 42.4663 60.6165 43.6158 61.4641 44.4634C62.3116 45.3109 63.4611 45.787 64.6597 45.787ZM64.6597 39.3309C65.0428 39.3309 65.4172 39.4445 65.7357 39.6573C66.0543 39.8701 66.3025 40.1726 66.4491 40.5265C66.5957 40.8804 66.6341 41.2699 66.5593 41.6456C66.4846 42.0213 66.3001 42.3664 66.0293 42.6373C65.7584 42.9081 65.4133 43.0926 65.0376 43.1673C64.6618 43.2421 64.2724 43.2037 63.9185 43.0571C63.5646 42.9105 63.2621 42.6623 63.0493 42.3438C62.8364 42.0253 62.7228 41.6508 62.7228 41.2677C62.7228 40.754 62.9269 40.2614 63.2901 39.8982C63.6534 39.5349 64.146 39.3309 64.6597 39.3309Z" fill="#080816" fill-opacity="0.38"/>
<path d="M73.6984 52.889C73.3559 52.889 73.0275 53.025 72.7853 53.2672C72.5432 53.5093 72.4071 53.8378 72.4071 54.1802V56.7627C72.4071 57.79 71.999 58.7753 71.2725 59.5018C70.5461 60.2283 69.5608 60.6364 68.5334 60.6364H65.951C65.6085 60.6364 65.2801 60.7724 65.0379 61.0146C64.7958 61.2567 64.6597 61.5851 64.6597 61.9276C64.6597 62.2701 64.7958 62.5985 65.0379 62.8406C65.2801 63.0828 65.6085 63.2188 65.951 63.2188H68.5334C70.2451 63.2168 71.886 62.5359 73.0964 61.3256C74.3067 60.1153 74.9875 58.4743 74.9896 56.7627V54.1802C74.9896 53.8378 74.8536 53.5093 74.6114 53.2672C74.3692 53.025 74.0408 52.889 73.6984 52.889Z" fill="#080816" fill-opacity="0.38"/>
<path d="M45.2912 42.559C45.6337 42.559 45.9621 42.423 46.2043 42.1808C46.4464 41.9387 46.5825 41.6103 46.5825 41.2678V38.6853C46.5825 37.658 46.9906 36.6727 47.717 35.9462C48.4435 35.2198 49.4288 34.8116 50.4562 34.8116H53.0386C53.3811 34.8116 53.7095 34.6756 53.9517 34.4334C54.1938 34.1913 54.3299 33.8629 54.3299 33.5204C54.3299 33.1779 54.1938 32.8495 53.9517 32.6074C53.7095 32.3652 53.3811 32.2292 53.0386 32.2292H50.4562C48.7445 32.2312 47.1036 32.9121 45.8932 34.1224C44.6829 35.3327 44.0021 36.9737 44 38.6853V41.2678C44 41.6103 44.136 41.9387 44.3782 42.1808C44.6203 42.423 44.9488 42.559 45.2912 42.559Z" fill="#080816" fill-opacity="0.38"/>
<path d="M53.0386 60.6364H50.4562C49.4288 60.6364 48.4435 60.2283 47.717 59.5018C46.9906 58.7753 46.5825 57.79 46.5825 56.7627V54.1802C46.5825 53.8378 46.4464 53.5093 46.2043 53.2672C45.9621 53.025 45.6337 52.889 45.2912 52.889C44.9488 52.889 44.6203 53.025 44.3782 53.2672C44.136 53.5093 44 53.8378 44 54.1802V56.7627C44.0021 58.4743 44.6829 60.1153 45.8932 61.3256C47.1036 62.5359 48.7445 63.2168 50.4562 63.2188H53.0386C53.3811 63.2188 53.7095 63.0828 53.9517 62.8406C54.1938 62.5985 54.3299 62.2701 54.3299 61.9276C54.3299 61.5851 54.1938 61.2567 53.9517 61.0146C53.7095 60.7724 53.3811 60.6364 53.0386 60.6364Z" fill="#080816" fill-opacity="0.38"/>
<path d="M68.5334 32.2292H65.951C65.6085 32.2292 65.2801 32.3652 65.0379 32.6074C64.7958 32.8495 64.6597 33.1779 64.6597 33.5204C64.6597 33.8629 64.7958 34.1913 65.0379 34.4334C65.2801 34.6756 65.6085 34.8116 65.951 34.8116H68.5334C69.5608 34.8116 70.5461 35.2198 71.2725 35.9462C71.999 36.6727 72.4071 37.658 72.4071 38.6853V41.2678C72.4071 41.6103 72.5432 41.9387 72.7853 42.1808C73.0275 42.423 73.3559 42.559 73.6984 42.559C74.0408 42.559 74.3692 42.423 74.6114 42.1808C74.8536 41.9387 74.9896 41.6103 74.9896 41.2678V38.6853C74.9875 36.9737 74.3067 35.3327 73.0964 34.1224C71.886 32.9121 70.2451 32.2312 68.5334 32.2292V32.2292Z" fill="#080816" fill-opacity="0.38"/>
</g>
<defs>
<clipPath id="clip0_9_172">
<rect width="30.9896" height="30.9896" fill="white" transform="translate(44 32.2292)"/>
</clipPath>
</defs>
</svg>
